<svg width="16" height="15" viewBox="0 0 16 15" fill="none" xmlns="http://www.w3.org/2000/svg">
<path d="M14.7964 2.12631C14.011 1.28414 12.9333 0.820312 11.7616 0.820312C10.8858 0.820312 10.0837 1.09406 9.37759 1.63387C9.02129 1.90636 8.69844 2.23972 8.4138 2.62882C8.12927 2.23984 7.80631 1.90636 7.44989 1.63387C6.7439 1.09406 5.94182 0.820312 5.06601 0.820312C3.89432 0.820312 2.81652 1.28414 2.03111 2.12631C1.25508 2.95864 0.827591 4.09573 0.827591 5.32825C0.827591 6.59683 1.30578 7.75806 2.33242 8.98281C3.25083 10.0784 4.5708 11.1905 6.09937 12.4783C6.62131 12.9181 7.21294 13.4166 7.82726 13.9476C7.98955 14.0881 8.1978 14.1655 8.4138 14.1655C8.62968 14.1655 8.83804 14.0881 9.0001 13.9478C9.61442 13.4167 10.2064 12.918 10.7286 12.478C12.2569 11.1904 13.5769 10.0784 14.4953 8.9827C15.5219 7.75806 16 6.59683 16 5.32814C16 4.09573 15.5725 2.95864 14.7964 2.12631Z" fill="#C4C4C4"/>
</svg>
